<svg width="61" height="61" viewBox="0 0 61 61" fill="none" xmlns="http://www.w3.org/2000/svg">
<circle cx="30.1385" cy="30.3989" r="30.0867" fill="#FF4970" fill-opacity="0.15"/>
<path d="M28.1026 36.4162H32.1682C32.3006 35.2111 32.9155 34.2164 33.9139 33.1293C34.0263 33.007 34.7475 32.2606 34.8331 32.154C35.6832 31.094 36.1528 29.7821 36.1528 28.3931C36.1528 25.0698 33.4587 22.3758 30.1354 22.3758C26.8121 22.3758 24.1181 25.0698 24.1181 28.3931C24.1181 29.7814 24.5872 31.0926 25.4365 32.1523C25.5222 32.2592 26.245 33.0076 26.3561 33.1285C27.3551 34.2163 27.9702 35.2111 28.1026 36.4162ZM32.1412 38.422H28.1296V39.4249H32.1412V38.422ZM23.8713 33.4067C22.7707 32.0333 22.1123 30.2901 22.1123 28.3931C22.1123 23.9621 25.7044 20.37 30.1354 20.37C34.5665 20.37 38.1586 23.9621 38.1586 28.3931C38.1586 30.2911 37.4995 32.0351 36.3978 33.409C35.7757 34.1846 34.147 35.4133 34.147 36.9177V39.4249C34.147 40.5327 33.249 41.4307 32.1412 41.4307H28.1296C27.0219 41.4307 26.1239 40.5327 26.1239 39.4249V36.9177C26.1239 35.4133 24.4937 34.1834 23.8713 33.4067ZM31.1383 28.3979H33.6455L29.1325 34.4153V30.4037H26.6253L31.1383 24.3815V28.3979Z" fill="black"/>
</svg>
