<svg width="1440" height="892" viewBox="0 0 1440 892" fill="none" xmlns="http://www.w3.org/2000/svg">
<path d="M-256 173.234C17.9404 289.607 165.604 443.089 250.767 568.648C321.758 673.328 320.499 716.148 395.882 794.247C559.469 963.719 872.84 1080.59 1024.72 934.948C1099.53 863.206 1071.86 772.291 1107.64 600.181C1139.84 445.357 1223.07 232.419 1455.46 1" stroke="url(#paint0_linear_1_26)" stroke-width="1.38981" stroke-miterlimit="10"/>
<path d="M-255.452 210.78C11.0003 310.794 157.187 455.183 242.305 572.69C313.924 671.59 319.747 711.139 399.818 787.896C567.786 948.915 862.081 1061.02 1014.17 925.127C1092.51 855.138 1074.69 765.778 1116.62 594.173C1153.54 443.094 1238.47 233.798 1466.85 4.45388" stroke="url(#paint1_linear_1_26)" stroke-width="1.38981" stroke-miterlimit="10"/>
<path d="M-254.903 248.321C4.05631 331.98 148.88 467.314 233.86 576.732C306.254 669.947 318.869 706.135 403.77 781.544C575.749 934.298 851.794 1041.71 1003.65 915.312C1085.69 847.024 1077.41 759.354 1125.62 588.17C1167.11 440.873 1253.89 235.192 1478.28 7.9339" stroke="url(#paint2_linear_1_26)" stroke-width="1.38981" stroke-miterlimit="10"/>
<path d="M-254.356 285.867C-2.88964 353.172 140.714 479.48 225.412 580.805C298.676 668.402 317.845 701.167 407.739 775.188C583.389 919.889 841.948 1022.69 993.139 905.491C1079.04 838.909 1080.01 753.002 1134.63 582.162C1180.5 438.683 1269.33 236.586 1489.69 11.3982" stroke="url(#paint3_linear_1_26)" stroke-width="1.38981" stroke-miterlimit="10"/>
<path d="M-253.806 323.408C-9.80699 374.348 132.72 491.647 216.969 584.82C291.23 666.94 316.741 696.246 411.664 768.836C590.677 905.694 832.463 1003.99 982.586 895.67C1072.53 830.779 1082.42 746.693 1143.61 576.154C1193.71 436.504 1284.72 237.975 1501.07 14.8886" stroke="url(#paint4_linear_1_26)" stroke-width="1.38981" stroke-miterlimit="10"/>
<path d="M-253.259 360.949C-16.7727 395.535 124.905 503.819 208.521 588.862C283.938 665.567 315.456 691.398 415.614 762.48C597.719 891.732 823.363 985.597 972.054 885.854C1066.2 822.695 1084.67 740.414 1152.6 570.146C1206.77 434.319 1300.14 239.369 1512.48 18.3269" stroke="url(#paint5_linear_1_26)" stroke-width="1.38981" stroke-miterlimit="10"/>
<path d="M-252.711 398.49C-23.7177 416.696 117.308 515.939 200.075 592.904C276.816 664.266 314.087 686.634 419.56 756.129C604.534 878 814.59 967.542 961.523 876.034C1060.03 814.685 1086.81 734.136 1161.59 564.144C1219.67 432.113 1315.57 240.763 1523.89 21.7965" stroke="url(#paint6_linear_1_26)" stroke-width="1.38981" stroke-miterlimit="10"/>
<path d="M-252.144 436.036C-30.6431 437.903 109.967 528.002 191.648 596.946C269.91 663.008 312.659 681.973 423.525 749.777C611.167 864.501 806.134 949.815 951.012 866.213C1054.02 806.773 1088.78 727.847 1170.61 558.136C1232.42 429.882 1330.97 242.173 1535.29 25.2608" stroke="url(#paint7_linear_1_26)" stroke-width="1.38981" stroke-miterlimit="10"/>
<path d="M-251.613 473.576C-37.6057 459.09 102.847 539.95 183.183 600.993C263.199 661.77 311.07 677.458 427.459 743.421C617.62 851.232 797.902 932.42 940.464 856.397C1048.14 798.991 1090.55 721.506 1179.58 552.128C1245.04 427.604 1346.39 243.546 1546.73 28.7252" stroke="url(#paint8_linear_1_26)" stroke-width="1.38981" stroke-miterlimit="10"/>
<path d="M-251.065 511.102C-44.5458 480.261 96.0054 551.727 174.737 605.019C256.694 660.49 309.44 672.995 431.405 737.054C623.927 838.165 789.875 915.327 929.932 846.561C1042.37 791.355 1092.18 715.087 1188.58 546.104C1257.52 425.252 1361.81 244.924 1558.11 32.1738" stroke="url(#paint9_linear_1_26)" stroke-width="1.38981" stroke-miterlimit="10"/>
<path d="M-250.516 548.663C-51.4641 501.463 89.4328 563.337 166.297 609.076C250.452 659.158 307.752 668.724 435.358 730.713C630.152 825.343 782.038 898.583 919.404 836.761C1036.75 783.948 1093.65 708.611 1197.57 540.112C1269.88 422.87 1377.22 246.334 1569.52 35.6642" stroke="url(#paint10_linear_1_26)" stroke-width="1.38981" stroke-miterlimit="10"/>
<path d="M-249.969 586.204C-58.4347 522.644 83.1092 574.682 157.85 613.118C244.445 657.655 306.027 664.584 439.303 724.362C636.3 812.708 774.342 882.12 908.872 826.94C1031.22 776.759 1094.97 702.015 1206.57 534.109C1282.14 420.399 1392.64 247.723 1580.93 39.1234" stroke="url(#paint11_linear_1_26)" stroke-width="1.38981" stroke-miterlimit="10"/>
<path d="M-249.421 623.75C-65.3797 543.831 77.0039 585.736 149.403 617.165C238.665 655.912 304.219 660.583 443.254 718.01C642.399 800.265 766.745 865.947 898.346 817.119C1025.78 769.835 1096.14 695.3 1215.56 528.101C1294.3 417.85 1408.05 249.117 1592.33 42.5878" stroke="url(#paint12_linear_1_26)" stroke-width="1.38981" stroke-miterlimit="10"/>
<path d="M-248.872 661.291C-72.3188 565.017 71.0823 596.467 140.958 621.207C233.089 653.827 302.402 656.734 447.191 711.654C648.455 787.995 759.208 850.02 887.806 807.303C1020.44 763.219 1097.17 688.439 1224.54 522.093C1306.39 415.213 1423.47 250.495 1603.74 46.0677" stroke="url(#paint13_linear_1_26)" stroke-width="1.38981" stroke-miterlimit="10"/>
<path d="M-248.324 698.832C-79.2638 586.199 65.2782 606.85 132.491 625.248C227.641 651.288 300.544 653.031 451.132 705.303C654.505 775.895 751.7 834.399 877.265 797.482C1015.14 756.945 1098.08 681.427 1233.53 516.069C1318.39 412.472 1438.87 251.884 1615.13 49.5008" stroke="url(#paint14_linear_1_26)" stroke-width="1.38981" stroke-miterlimit="10"/>
<path d="M-247.777 736.378C-86.185 607.385 59.5227 616.879 124.064 629.29C222.305 648.183 298.711 649.478 455.097 698.946C660.57 763.968 744.221 818.997 866.753 787.667C1009.92 751.052 1098.9 674.269 1242.54 510.082C1330.39 409.668 1454.3 253.294 1626.55 52.986" stroke="url(#paint15_linear_1_26)" stroke-width="1.38981" stroke-miterlimit="10"/>
<path d="M-247.203 773.919C-93.1283 628.572 54.4365 645.374 115.644 633.337C215.757 613.643 296.884 646.076 459.074 692.595C666.671 752.149 736.694 803.823 856.224 777.846C1004.69 745.595 1099.61 666.898 1251.54 504.074C1342.32 406.771 1469.72 254.688 1637.96 56.4712" stroke="url(#paint16_linear_1_26)" stroke-width="1.38981" stroke-miterlimit="10"/>
<path d="M-246.68 811.459C-100.093 649.759 49.2304 651.46 107.173 637.379C208.729 612.702 295.007 642.814 462.996 686.244C672.79 740.498 729.078 788.874 845.693 768.025C999.452 740.57 1100.23 659.372 1260.53 498.056C1354.24 403.764 1485.13 256.066 1649.37 59.9043" stroke="url(#paint17_linear_1_26)" stroke-width="1.38981" stroke-miterlimit="10"/>
<path d="M-246.131 849.005C-107.037 670.94 43.3434 656.948 98.7271 641.42C202.11 612.442 293.165 639.699 466.948 679.913C678.945 728.945 721.368 774.095 835.164 758.235C994.173 736.071 1100.78 651.683 1269.53 492.084C1366.13 400.716 1500.55 257.486 1660.78 63.405" stroke="url(#paint18_linear_1_26)" stroke-width="1.38981" stroke-miterlimit="10"/>
<path d="M-245.582 886.546C-113.981 692.127 34.9917 654.029 90.2866 645.462C199.202 628.624 291.353 636.713 470.9 673.551C685.164 717.49 713.525 759.468 824.639 748.404C988.809 732.04 1101.28 643.746 1278.53 486.05C1378.04 397.517 1515.98 258.865 1672.19 66.8433" stroke="url(#paint19_linear_1_26)" stroke-width="1.38981" stroke-miterlimit="10"/>
<path d="M-245.036 924.087C-120.928 713.313 28.1041 662.862 81.8331 649.509C192.299 622.06 289.548 633.862 474.839 667.195C691.42 706.14 705.502 745.002 814.101 738.583C983.324 728.586 1101.73 635.693 1287.51 480.058C1389.92 394.266 1531.38 260.269 1683.59 70.3233" stroke="url(#paint20_linear_1_26)" stroke-width="1.38981" stroke-miterlimit="10"/>
<path d="M-244.488 961.633C-127.868 734.5 20.7491 671.705 73.3866 653.551C184.767 615.12 287.779 631.136 478.79 660.833C697.751 694.873 697.292 730.651 803.575 728.757C977.683 725.636 1102.15 627.422 1296.51 474.044C1401.83 390.942 1546.8 261.648 1695 73.7773" stroke="url(#paint21_linear_1_26)" stroke-width="1.38981" stroke-miterlimit="10"/>
<defs>
<linearGradient id="paint0_linear_1_26" x1="599.729" y1="1" x2="599.729" y2="1001" gradientUnits="userSpaceOnUse">
<stop stop-color="#FF4970"/>
<stop offset="1" stop-color="#FF4970" stop-opacity="0"/>
</linearGradient>
<linearGradient id="paint1_linear_1_26" x1="605.7" y1="4.45388" x2="605.7" y2="985.946" gradientUnits="userSpaceOnUse">
<stop stop-color="#FF4970"/>
<stop offset="1" stop-color="#FF4970" stop-opacity="0"/>
</linearGradient>
<linearGradient id="paint2_linear_1_26" x1="611.69" y1="7.9339" x2="611.69" y2="971.069" gradientUnits="userSpaceOnUse">
<stop stop-color="#FF4970"/>
<stop offset="1" stop-color="#FF4970" stop-opacity="0"/>
</linearGradient>
<linearGradient id="paint3_linear_1_26" x1="617.667" y1="11.3982" x2="617.667" y2="956.386" gradientUnits="userSpaceOnUse">
<stop stop-color="#FF4970"/>
<stop offset="1" stop-color="#FF4970" stop-opacity="0"/>
</linearGradient>
<linearGradient id="paint4_linear_1_26" x1="623.634" y1="14.8886" x2="623.634" y2="941.908" gradientUnits="userSpaceOnUse">
<stop stop-color="#FF4970"/>
<stop offset="1" stop-color="#FF4970" stop-opacity="0"/>
</linearGradient>
<linearGradient id="paint5_linear_1_26" x1="629.611" y1="18.3269" x2="629.611" y2="927.645" gradientUnits="userSpaceOnUse">
<stop stop-color="#FF4970"/>
<stop offset="1" stop-color="#FF4970" stop-opacity="0"/>
</linearGradient>
<linearGradient id="paint6_linear_1_26" x1="635.587" y1="21.7965" x2="635.587" y2="913.6" gradientUnits="userSpaceOnUse">
<stop stop-color="#FF4970"/>
<stop offset="1" stop-color="#FF4970" stop-opacity="0"/>
</linearGradient>
<linearGradient id="paint7_linear_1_26" x1="641.576" y1="25.2608" x2="641.576" y2="899.772" gradientUnits="userSpaceOnUse">
<stop stop-color="#FF4970"/>
<stop offset="1" stop-color="#FF4970" stop-opacity="0"/>
</linearGradient>
<linearGradient id="paint8_linear_1_26" x1="647.559" y1="28.7252" x2="647.559" y2="886.167" gradientUnits="userSpaceOnUse">
<stop stop-color="#FF4970"/>
<stop offset="1" stop-color="#FF4970" stop-opacity="0"/>
</linearGradient>
<linearGradient id="paint9_linear_1_26" x1="653.523" y1="32.1738" x2="653.523" y2="872.757" gradientUnits="userSpaceOnUse">
<stop stop-color="#FF4970"/>
<stop offset="1" stop-color="#FF4970" stop-opacity="0"/>
</linearGradient>
<linearGradient id="paint10_linear_1_26" x1="659.503" y1="35.6642" x2="659.503" y2="859.593" gradientUnits="userSpaceOnUse">
<stop stop-color="#FF4970"/>
<stop offset="1" stop-color="#FF4970" stop-opacity="0"/>
</linearGradient>
<linearGradient id="paint11_linear_1_26" x1="665.478" y1="39.1234" x2="665.478" y2="846.617" gradientUnits="userSpaceOnUse">
<stop stop-color="#FF4970"/>
<stop offset="1" stop-color="#FF4970" stop-opacity="0"/>
</linearGradient>
<linearGradient id="paint12_linear_1_26" x1="671.457" y1="42.5878" x2="671.457" y2="833.844" gradientUnits="userSpaceOnUse">
<stop stop-color="#FF4970"/>
<stop offset="1" stop-color="#FF4970" stop-opacity="0"/>
</linearGradient>
<linearGradient id="paint13_linear_1_26" x1="677.434" y1="46.0677" x2="677.434" y2="821.26" gradientUnits="userSpaceOnUse">
<stop stop-color="#FF4970"/>
<stop offset="1" stop-color="#FF4970" stop-opacity="0"/>
</linearGradient>
<linearGradient id="paint14_linear_1_26" x1="683.402" y1="49.5008" x2="683.402" y2="808.89" gradientUnits="userSpaceOnUse">
<stop stop-color="#FF4970"/>
<stop offset="1" stop-color="#FF4970" stop-opacity="0"/>
</linearGradient>
<linearGradient id="paint15_linear_1_26" x1="689.388" y1="52.986" x2="689.388" y2="796.713" gradientUnits="userSpaceOnUse">
<stop stop-color="#FF4970"/>
<stop offset="1" stop-color="#FF4970" stop-opacity="0"/>
</linearGradient>
<linearGradient id="paint16_linear_1_26" x1="695.38" y1="56.4712" x2="695.38" y2="784.734" gradientUnits="userSpaceOnUse">
<stop stop-color="#FF4970"/>
<stop offset="1" stop-color="#FF4970" stop-opacity="0"/>
</linearGradient>
<linearGradient id="paint17_linear_1_26" x1="701.344" y1="59.9043" x2="701.344" y2="811.459" gradientUnits="userSpaceOnUse">
<stop stop-color="#FF4970"/>
<stop offset="1" stop-color="#FF4970" stop-opacity="0"/>
</linearGradient>
<linearGradient id="paint18_linear_1_26" x1="707.323" y1="63.405" x2="707.323" y2="849.006" gradientUnits="userSpaceOnUse">
<stop stop-color="#FF4970"/>
<stop offset="1" stop-color="#FF4970" stop-opacity="0"/>
</linearGradient>
<linearGradient id="paint19_linear_1_26" x1="713.303" y1="66.8433" x2="713.303" y2="886.546" gradientUnits="userSpaceOnUse">
<stop stop-color="#FF4970"/>
<stop offset="1" stop-color="#FF4970" stop-opacity="0"/>
</linearGradient>
<linearGradient id="paint20_linear_1_26" x1="719.277" y1="70.3233" x2="719.277" y2="924.087" gradientUnits="userSpaceOnUse">
<stop stop-color="#FF4970"/>
<stop offset="1" stop-color="#FF4970" stop-opacity="0"/>
</linearGradient>
<linearGradient id="paint21_linear_1_26" x1="725.256" y1="73.7773" x2="725.256" y2="961.633" gradientUnits="userSpaceOnUse">
<stop stop-color="#FF4970"/>
<stop offset="1" stop-color="#FF4970" stop-opacity="0"/>
</linearGradient>
</defs>
</svg>
