<svg width="375" height="661" viewBox="0 0 375 661" fill="none" xmlns="http://www.w3.org/2000/svg">
<path d="M-176 46.7707C-73.325 133.091 -17.9795 246.938 13.9401 340.072C40.5484 417.719 40.0763 449.482 68.3304 507.412C129.644 633.119 247.098 719.806 304.023 611.778C332.064 558.563 321.691 491.126 335.104 363.462C347.17 248.62 378.368 90.6718 465.468 -80.9855" stroke="url(#paint0_linear_66_576)" stroke-width="0.345605" stroke-miterlimit="10"/>
<path d="M-175.795 74.6207C-75.9264 148.807 -21.1345 255.909 10.7684 343.07C37.6118 416.43 39.7945 445.766 69.8054 502.701C132.761 622.138 243.066 705.291 300.07 604.494C329.433 552.579 322.753 486.295 338.469 359.006C352.305 246.942 384.14 91.6942 469.738 -78.4235" stroke="url(#paint1_linear_66_576)" stroke-width="0.345605" stroke-miterlimit="10"/>
<path d="M-175.589 102.467C-78.5288 164.522 -24.2477 264.906 7.60333 346.068C34.7374 415.211 39.4655 442.054 71.2869 497.99C135.746 611.296 239.21 690.969 296.127 597.213C326.875 546.56 323.774 481.53 341.842 354.553C357.393 245.294 389.92 92.7283 474.023 -75.8422" stroke="url(#paint2_linear_66_576)" stroke-width="0.345605" stroke-miterlimit="10"/>
<path d="M-175.384 130.317C-81.132 180.241 -27.3083 273.931 4.43725 349.089C31.8971 414.065 39.0819 438.369 72.775 493.275C138.61 600.608 235.52 676.862 292.187 589.928C324.384 540.54 324.747 476.819 345.22 350.096C362.413 243.67 395.705 93.7624 478.299 -73.2725" stroke="url(#paint3_linear_66_576)" stroke-width="0.345605" stroke-miterlimit="10"/>
<path d="M-175.177 158.163C-83.7246 195.949 -30.3045 282.956 1.27262 352.068C29.1064 412.981 38.6682 434.719 74.2459 488.564C141.341 590.079 231.965 662.987 288.232 582.643C321.944 534.51 325.652 472.138 348.583 345.64C367.363 242.053 401.476 94.7926 482.565 -70.6835" stroke="url(#paint4_linear_66_576)" stroke-width="0.345605" stroke-miterlimit="10"/>
<path d="M-174.973 186.009C-86.3358 211.664 -33.2341 291.985 -1.89396 355.066C26.373 411.962 38.186 431.123 75.726 483.849C143.98 579.723 228.554 649.348 284.284 575.363C319.571 528.514 326.493 467.481 351.954 341.184C372.256 240.432 407.253 95.8266 486.841 -68.1331" stroke="url(#paint5_linear_66_576)" stroke-width="0.345605" stroke-miterlimit="10"/>
<path d="M-174.767 213.856C-88.9386 227.36 -36.0812 300.975 -5.05953 358.064C23.7036 410.998 37.6733 427.589 77.2053 479.138C146.535 569.536 225.266 635.955 280.337 568.078C317.257 522.572 327.297 462.824 355.325 336.731C377.094 238.797 413.038 96.8607 491.115 -65.5595" stroke="url(#paint6_linear_66_576)" stroke-width="0.345605" stroke-miterlimit="10"/>
<path d="M-174.555 241.706C-91.5346 243.091 -38.8327 309.923 -8.2183 361.062C21.115 410.064 37.1377 424.132 78.6913 474.426C149.021 559.524 222.096 622.806 276.397 560.793C315.007 516.703 328.035 458.159 358.703 332.274C381.872 237.141 418.808 97.9063 495.391 -62.9898" stroke="url(#paint7_linear_66_576)" stroke-width="0.345605" stroke-miterlimit="10"/>
<path d="M-174.355 269.552C-94.1437 258.806 -41.5011 318.786 -11.3902 364.064C18.6003 409.146 36.5428 420.783 80.1661 469.712C151.44 549.681 219.011 609.903 272.444 553.513C312.802 510.931 328.699 453.456 362.068 327.818C386.601 235.451 424.587 98.9251 499.678 -60.42" stroke="url(#paint8_linear_66_576)" stroke-width="0.345605" stroke-miterlimit="10"/>
<path d="M-174.15 297.387C-96.7452 274.51 -44.0655 327.521 -14.5563 367.05C16.1618 408.197 35.9315 417.472 81.6448 464.989C153.804 539.989 216.002 597.225 268.497 546.216C310.641 505.267 329.309 448.695 365.439 323.35C391.279 233.707 430.366 99.9474 503.943 -57.8619" stroke="url(#paint9_linear_66_576)" stroke-width="0.345605" stroke-miterlimit="10"/>
<path d="M-173.945 325.248C-99.3387 290.237 -46.5295 336.133 -17.72 370.06C13.8219 407.209 35.2984 414.304 83.1259 460.285C156.136 530.478 213.065 584.804 264.55 538.947C308.531 499.772 329.859 443.891 368.81 318.905C395.911 231.94 436.144 100.993 508.22 -55.2729" stroke="url(#paint10_linear_66_576)" stroke-width="0.345605" stroke-miterlimit="10"/>
<path d="M-173.739 353.094C-101.951 305.948 -48.899 344.548 -20.8856 373.058C11.5708 406.094 34.6524 411.233 84.6051 455.574C158.441 521.106 210.18 572.592 260.603 531.662C306.461 494.44 330.354 438.998 372.181 314.452C400.505 230.107 441.922 102.023 512.494 -52.7072" stroke="url(#paint11_linear_66_576)" stroke-width="0.345605" stroke-miterlimit="10"/>
<path d="M-173.534 380.945C-104.554 321.664 -51.1871 352.747 -24.0512 376.06C9.40487 404.801 33.9749 408.266 86.0862 450.863C160.727 511.876 207.333 560.597 256.658 524.378C304.421 489.305 330.794 434.017 375.552 309.996C405.065 228.217 447.7 103.057 516.771 -50.1374" stroke="url(#paint12_linear_66_576)" stroke-width="0.345605" stroke-miterlimit="10"/>
<path d="M-173.328 408.791C-107.155 337.379 -53.4067 360.707 -27.2168 379.058C7.31484 403.254 33.2937 405.411 87.5617 446.148C162.997 502.774 204.508 548.782 252.708 517.097C302.42 484.397 331.179 428.928 378.92 305.54C409.597 226.261 453.478 104.08 521.045 -47.556" stroke="url(#paint13_linear_66_576)" stroke-width="0.345605" stroke-miterlimit="10"/>
<path d="M-173.124 436.637C-109.758 353.091 -55.5829 368.409 -30.3908 382.056C5.27201 401.371 32.5967 402.664 89.0382 441.437C165.264 493.799 201.693 537.195 248.756 509.812C300.434 479.743 331.519 423.727 382.286 301.071C414.095 224.227 459.249 105.11 525.313 -45.0096" stroke="url(#paint14_linear_66_576)" stroke-width="0.345605" stroke-miterlimit="10"/>
<path d="M-172.918 464.487C-112.352 368.806 -57.7395 375.848 -33.549 385.054C3.27273 399.068 31.91 400.028 90.5249 436.722C167.538 484.952 198.891 525.771 244.817 502.531C298.476 475.372 331.826 418.418 385.665 296.63C418.592 222.147 465.034 106.156 529.596 -42.4244" stroke="url(#paint15_linear_66_576)" stroke-width="0.345605" stroke-miterlimit="10"/>
<path d="M-172.703 492.333C-114.955 384.521 -59.6462 396.984 -36.7053 388.056C0.818044 373.448 31.2251 397.505 92.0152 432.011C169.824 476.186 196.069 514.515 240.87 495.247C296.517 471.324 332.091 412.95 389.036 292.174C423.064 219.998 470.812 107.19 533.872 -39.8392" stroke="url(#paint16_linear_66_576)" stroke-width="0.345605" stroke-miterlimit="10"/>
<path d="M-172.506 520.179C-117.564 400.237 -61.5969 401.498 -39.8797 391.054C-1.81576 372.749 30.5222 395.086 93.4857 427.3C172.118 467.543 193.215 503.426 236.924 487.962C294.554 467.597 332.325 407.367 392.408 287.71C427.53 217.768 476.591 108.212 538.147 -37.2927" stroke="url(#paint17_linear_66_576)" stroke-width="0.345605" stroke-miterlimit="10"/>
<path d="M-172.3 548.03C-120.167 415.948 -63.8031 405.569 -43.0448 394.052C-4.29591 372.556 29.8322 392.775 94.9672 422.604C174.425 458.974 190.326 492.465 232.977 480.7C292.575 464.26 332.533 401.664 395.78 283.28C431.989 215.507 482.371 109.266 542.424 -34.696" stroke="url(#paint18_linear_66_576)" stroke-width="0.345605" stroke-miterlimit="10"/>
<path d="M-172.095 575.876C-122.77 431.664 -66.934 403.404 -46.209 397.05C-5.38671 384.56 29.1524 390.56 96.4478 417.885C176.756 450.477 187.386 481.615 229.032 473.408C290.564 461.269 332.718 395.776 399.154 278.804C436.45 213.134 488.152 110.288 546.7 -32.1456" stroke="url(#paint19_linear_66_576)" stroke-width="0.345605" stroke-miterlimit="10"/>
<path d="M-171.891 603.722C-125.374 447.379 -69.5155 409.956 -49.3774 400.051C-7.97383 379.69 28.4758 388.445 97.9242 413.17C179.1 442.058 184.378 470.884 225.082 466.123C288.509 458.707 332.887 389.803 402.521 274.359C440.905 210.723 493.925 111.33 550.974 -29.5644" stroke="url(#paint20_linear_66_576)" stroke-width="0.345605" stroke-miterlimit="10"/>
<path d="M-171.686 631.572C-127.975 463.094 -72.2725 416.515 -52.5435 403.049C-10.7974 374.543 27.8126 386.423 99.4048 408.451C181.473 433.701 181.301 460.239 221.137 458.834C286.394 456.519 333.044 383.669 405.893 269.899C445.368 208.257 499.703 112.352 555.25 -27.0023" stroke="url(#paint21_linear_66_576)" stroke-width="0.345605" stroke-miterlimit="10"/>
<defs>
<linearGradient id="paint0_linear_66_576" x1="144.734" y1="-80.9855" x2="144.734" y2="660.773" gradientUnits="userSpaceOnUse">
<stop stop-color="#FF4970"/>
<stop offset="1" stop-color="#FF4970" stop-opacity="0"/>
</linearGradient>
<linearGradient id="paint1_linear_66_576" x1="146.972" y1="-78.4235" x2="146.972" y2="649.606" gradientUnits="userSpaceOnUse">
<stop stop-color="#FF4970"/>
<stop offset="1" stop-color="#FF4970" stop-opacity="0"/>
</linearGradient>
<linearGradient id="paint2_linear_66_576" x1="149.217" y1="-75.8422" x2="149.217" y2="638.572" gradientUnits="userSpaceOnUse">
<stop stop-color="#FF4970"/>
<stop offset="1" stop-color="#FF4970" stop-opacity="0"/>
</linearGradient>
<linearGradient id="paint3_linear_66_576" x1="151.458" y1="-73.2725" x2="151.458" y2="627.68" gradientUnits="userSpaceOnUse">
<stop stop-color="#FF4970"/>
<stop offset="1" stop-color="#FF4970" stop-opacity="0"/>
</linearGradient>
<linearGradient id="paint4_linear_66_576" x1="153.694" y1="-70.6835" x2="153.694" y2="616.941" gradientUnits="userSpaceOnUse">
<stop stop-color="#FF4970"/>
<stop offset="1" stop-color="#FF4970" stop-opacity="0"/>
</linearGradient>
<linearGradient id="paint5_linear_66_576" x1="155.934" y1="-68.1331" x2="155.934" y2="606.361" gradientUnits="userSpaceOnUse">
<stop stop-color="#FF4970"/>
<stop offset="1" stop-color="#FF4970" stop-opacity="0"/>
</linearGradient>
<linearGradient id="paint6_linear_66_576" x1="158.174" y1="-65.5595" x2="158.174" y2="595.943" gradientUnits="userSpaceOnUse">
<stop stop-color="#FF4970"/>
<stop offset="1" stop-color="#FF4970" stop-opacity="0"/>
</linearGradient>
<linearGradient id="paint7_linear_66_576" x1="160.418" y1="-62.9898" x2="160.418" y2="585.686" gradientUnits="userSpaceOnUse">
<stop stop-color="#FF4970"/>
<stop offset="1" stop-color="#FF4970" stop-opacity="0"/>
</linearGradient>
<linearGradient id="paint8_linear_66_576" x1="162.661" y1="-60.42" x2="162.661" y2="575.594" gradientUnits="userSpaceOnUse">
<stop stop-color="#FF4970"/>
<stop offset="1" stop-color="#FF4970" stop-opacity="0"/>
</linearGradient>
<linearGradient id="paint9_linear_66_576" x1="164.896" y1="-57.8619" x2="164.896" y2="565.647" gradientUnits="userSpaceOnUse">
<stop stop-color="#FF4970"/>
<stop offset="1" stop-color="#FF4970" stop-opacity="0"/>
</linearGradient>
<linearGradient id="paint10_linear_66_576" x1="167.137" y1="-55.2729" x2="167.137" y2="555.883" gradientUnits="userSpaceOnUse">
<stop stop-color="#FF4970"/>
<stop offset="1" stop-color="#FF4970" stop-opacity="0"/>
</linearGradient>
<linearGradient id="paint11_linear_66_576" x1="169.377" y1="-52.7072" x2="169.377" y2="546.258" gradientUnits="userSpaceOnUse">
<stop stop-color="#FF4970"/>
<stop offset="1" stop-color="#FF4970" stop-opacity="0"/>
</linearGradient>
<linearGradient id="paint12_linear_66_576" x1="171.618" y1="-50.1374" x2="171.618" y2="536.784" gradientUnits="userSpaceOnUse">
<stop stop-color="#FF4970"/>
<stop offset="1" stop-color="#FF4970" stop-opacity="0"/>
</linearGradient>
<linearGradient id="paint13_linear_66_576" x1="173.859" y1="-47.556" x2="173.859" y2="527.449" gradientUnits="userSpaceOnUse">
<stop stop-color="#FF4970"/>
<stop offset="1" stop-color="#FF4970" stop-opacity="0"/>
</linearGradient>
<linearGradient id="paint14_linear_66_576" x1="176.095" y1="-45.0096" x2="176.095" y2="518.274" gradientUnits="userSpaceOnUse">
<stop stop-color="#FF4970"/>
<stop offset="1" stop-color="#FF4970" stop-opacity="0"/>
</linearGradient>
<linearGradient id="paint15_linear_66_576" x1="178.339" y1="-42.4244" x2="178.339" y2="509.241" gradientUnits="userSpaceOnUse">
<stop stop-color="#FF4970"/>
<stop offset="1" stop-color="#FF4970" stop-opacity="0"/>
</linearGradient>
<linearGradient id="paint16_linear_66_576" x1="180.584" y1="-39.8392" x2="180.584" y2="500.356" gradientUnits="userSpaceOnUse">
<stop stop-color="#FF4970"/>
<stop offset="1" stop-color="#FF4970" stop-opacity="0"/>
</linearGradient>
<linearGradient id="paint17_linear_66_576" x1="182.82" y1="-37.2927" x2="182.82" y2="520.18" gradientUnits="userSpaceOnUse">
<stop stop-color="#FF4970"/>
<stop offset="1" stop-color="#FF4970" stop-opacity="0"/>
</linearGradient>
<linearGradient id="paint18_linear_66_576" x1="185.062" y1="-34.696" x2="185.062" y2="548.03" gradientUnits="userSpaceOnUse">
<stop stop-color="#FF4970"/>
<stop offset="1" stop-color="#FF4970" stop-opacity="0"/>
</linearGradient>
<linearGradient id="paint19_linear_66_576" x1="187.302" y1="-32.1456" x2="187.302" y2="575.876" gradientUnits="userSpaceOnUse">
<stop stop-color="#FF4970"/>
<stop offset="1" stop-color="#FF4970" stop-opacity="0"/>
</linearGradient>
<linearGradient id="paint20_linear_66_576" x1="189.542" y1="-29.5644" x2="189.542" y2="603.722" gradientUnits="userSpaceOnUse">
<stop stop-color="#FF4970"/>
<stop offset="1" stop-color="#FF4970" stop-opacity="0"/>
</linearGradient>
<linearGradient id="paint21_linear_66_576" x1="191.782" y1="-27.0023" x2="191.782" y2="631.572" gradientUnits="userSpaceOnUse">
<stop stop-color="#FF4970"/>
<stop offset="1" stop-color="#FF4970" stop-opacity="0"/>
</linearGradient>
</defs>
</svg>
