<svg width="131" height="130" viewBox="0 0 131 130" fill="none" xmlns="http://www.w3.org/2000/svg">
<circle cx="65.5" cy="65" r="65" fill="#05C346" fill-opacity="0.2"/>
<path d="M64.9987 114.167C37.8447 114.167 15.832 92.1538 15.832 65C15.832 37.846 37.8447 15.8333 64.9987 15.8333C92.1525 15.8333 114.165 37.846 114.165 65C114.165 92.1538 92.1525 114.167 64.9987 114.167ZM60.0948 84.6667L91.3845 53.3771C93.3045 51.4571 93.3045 48.344 91.3845 46.424C89.4644 44.5039 86.3514 44.5039 84.4313 46.424L60.0948 70.7604L49.6653 60.3305C47.7452 58.4103 44.6319 58.4103 42.7118 60.3305C40.7918 62.2507 40.7918 65.3637 42.7119 67.2838L60.0948 84.6667Z" fill="#05C446"/>
</svg>
