<svg width="61" height="62" viewBox="0 0 61 62" fill="none" xmlns="http://www.w3.org/2000/svg">
<circle cx="30.1385" cy="30.9538" r="30.0867" fill="#4BC0C0" fill-opacity="0.15"/>
<path d="M30.1402 29.9509C32.9096 29.9509 35.1547 32.196 35.1547 34.9654V40.9827H33.1489V34.9654C33.1489 33.363 31.8964 32.0533 30.317 31.9618L30.1402 31.9567C28.5379 31.9567 27.2282 33.2092 27.1367 34.7886L27.1316 34.9654V40.9827H25.1258V34.9654C25.1258 32.196 27.3708 29.9509 30.1402 29.9509ZM23.6214 32.9596C23.9011 32.9596 24.1731 32.9923 24.4339 33.0541C24.2653 33.5553 24.1617 34.0848 24.1319 34.6337L24.1229 34.9654L24.1236 35.0512C24.0101 35.0111 23.8904 34.9841 23.7663 34.9723L23.6214 34.9654C22.8395 34.9654 22.1969 35.562 22.124 36.3248L22.1171 36.4697V40.9827H20.1113V36.4697C20.1113 34.5311 21.6829 32.9596 23.6214 32.9596ZM36.659 32.9596C38.5976 32.9596 40.1691 34.5311 40.1691 36.4697V40.9827H38.1634V36.4697C38.1634 35.6877 37.5667 35.0452 36.8039 34.9723L36.659 34.9654C36.4833 34.9654 36.3146 34.9954 36.1579 35.0508L36.1576 34.9654C36.1576 34.2977 36.0489 33.6556 35.8482 33.0555C36.1073 32.9923 36.3793 32.9596 36.659 32.9596ZM23.6214 26.9422C25.0061 26.9422 26.1287 28.0648 26.1287 29.4495C26.1287 30.8342 25.0061 31.9567 23.6214 31.9567C22.2367 31.9567 21.1142 30.8342 21.1142 29.4495C21.1142 28.0648 22.2367 26.9422 23.6214 26.9422ZM36.659 26.9422C38.0437 26.9422 39.1662 28.0648 39.1662 29.4495C39.1662 30.8342 38.0437 31.9567 36.659 31.9567C35.2743 31.9567 34.1518 30.8342 34.1518 29.4495C34.1518 28.0648 35.2743 26.9422 36.659 26.9422ZM23.6214 28.948C23.3445 28.948 23.12 29.1726 23.12 29.4495C23.12 29.7264 23.3445 29.9509 23.6214 29.9509C23.8984 29.9509 24.1229 29.7264 24.1229 29.4495C24.1229 29.1726 23.8984 28.948 23.6214 28.948ZM36.659 28.948C36.3821 28.948 36.1576 29.1726 36.1576 29.4495C36.1576 29.7264 36.3821 29.9509 36.659 29.9509C36.9359 29.9509 37.1605 29.7264 37.1605 29.4495C37.1605 29.1726 36.9359 28.948 36.659 28.948ZM30.1402 20.9249C32.3557 20.9249 34.1518 22.7209 34.1518 24.9365C34.1518 27.152 32.3557 28.948 30.1402 28.948C27.9247 28.948 26.1287 27.152 26.1287 24.9365C26.1287 22.7209 27.9247 20.9249 30.1402 20.9249ZM30.1402 22.9307C29.0324 22.9307 28.1345 23.8287 28.1345 24.9365C28.1345 26.0442 29.0324 26.9422 30.1402 26.9422C31.248 26.9422 32.146 26.0442 32.146 24.9365C32.146 23.8287 31.248 22.9307 30.1402 22.9307Z" fill="black"/>
</svg>
