<svg width="20" height="20" viewBox="0 0 20 20" fill="none" xmlns="http://www.w3.org/2000/svg">
<path d="M3.74962 5C3.74962 4.83424 3.81546 4.67527 3.93267 4.55806C4.04988 4.44085 4.20886 4.375 4.37462 4.375H5.62462V3.125C5.62462 2.95924 5.69046 2.80027 5.80767 2.68306C5.92488 2.56585 6.08386 2.5 6.24962 2.5C6.41538 2.5 6.57435 2.56585 6.69156 2.68306C6.80877 2.80027 6.87462 2.95924 6.87462 3.125V4.375H8.12462C8.29038 4.375 8.44935 4.44085 8.56656 4.55806C8.68377 4.67527 8.74962 4.83424 8.74962 5C8.74962 5.16576 8.68377 5.32473 8.56656 5.44194C8.44935 5.55915 8.29038 5.625 8.12462 5.625H6.87462V6.875C6.87462 7.04076 6.80877 7.19973 6.69156 7.31694C6.57435 7.43415 6.41538 7.5 6.24962 7.5C6.08386 7.5 5.92488 7.43415 5.80767 7.31694C5.69046 7.19973 5.62462 7.04076 5.62462 6.875V5.625H4.37462C4.20886 5.625 4.04988 5.55915 3.93267 5.44194C3.81546 5.32473 3.74962 5.16576 3.74962 5ZM14.3746 15H13.7496V14.375C13.7496 14.2092 13.6838 14.0503 13.5666 13.9331C13.4493 13.8158 13.2904 13.75 13.1246 13.75C12.9589 13.75 12.7999 13.8158 12.6827 13.9331C12.5655 14.0503 12.4996 14.2092 12.4996 14.375V15H11.8746C11.7089 15 11.5499 15.0658 11.4327 15.1831C11.3155 15.3003 11.2496 15.4592 11.2496 15.625C11.2496 15.7908 11.3155 15.9497 11.4327 16.0669C11.5499 16.1842 11.7089 16.25 11.8746 16.25H12.4996V16.875C12.4996 17.0408 12.5655 17.1997 12.6827 17.3169C12.7999 17.4342 12.9589 17.5 13.1246 17.5C13.2904 17.5 13.4493 17.4342 13.5666 17.3169C13.6838 17.1997 13.7496 17.0408 13.7496 16.875V16.25H14.3746C14.5404 16.25 14.6993 16.1842 14.8166 16.0669C14.9338 15.9497 14.9996 15.7908 14.9996 15.625C14.9996 15.4592 14.9338 15.3003 14.8166 15.1831C14.6993 15.0658 14.5404 15 14.3746 15ZM18.7496 11.25H17.4996V10C17.4996 9.83424 17.4338 9.67527 17.3166 9.55806C17.1993 9.44085 17.0404 9.375 16.8746 9.375C16.7089 9.375 16.5499 9.44085 16.4327 9.55806C16.3155 9.67527 16.2496 9.83424 16.2496 10V11.25H14.9996C14.8339 11.25 14.6749 11.3158 14.5577 11.4331C14.4405 11.5503 14.3746 11.7092 14.3746 11.875C14.3746 12.0408 14.4405 12.1997 14.5577 12.3169C14.6749 12.4342 14.8339 12.5 14.9996 12.5H16.2496V13.75C16.2496 13.9158 16.3155 14.0747 16.4327 14.1919C16.5499 14.3092 16.7089 14.375 16.8746 14.375C17.0404 14.375 17.1993 14.3092 17.3166 14.1919C17.4338 14.0747 17.4996 13.9158 17.4996 13.75V12.5H18.7496C18.9154 12.5 19.0743 12.4342 19.1916 12.3169C19.3088 12.1997 19.3746 12.0408 19.3746 11.875C19.3746 11.7092 19.3088 11.5503 19.1916 11.4331C19.0743 11.3158 18.9154 11.25 18.7496 11.25ZM17.1332 6.25L6.24962 17.1336C6.01522 17.3678 5.6974 17.4994 5.36602 17.4994C5.03464 17.4994 4.71683 17.3678 4.48243 17.1336L2.86524 15.518C2.74914 15.4019 2.65704 15.2641 2.5942 15.1124C2.53137 14.9607 2.49902 14.7982 2.49902 14.634C2.49902 14.4698 2.53137 14.3072 2.5942 14.1556C2.65704 14.0039 2.74914 13.8661 2.86524 13.75L13.7496 2.86641C13.8657 2.7503 14.0035 2.6582 14.1552 2.59537C14.3069 2.53253 14.4694 2.50019 14.6336 2.50019C14.7978 2.50019 14.9603 2.53253 15.112 2.59537C15.2637 2.6582 15.4015 2.7503 15.5176 2.86641L17.1332 4.48203C17.2493 4.59811 17.3414 4.73592 17.4042 4.8876C17.4671 5.03927 17.4994 5.20184 17.4994 5.36602C17.4994 5.53019 17.4671 5.69276 17.4042 5.84444C17.3414 5.99611 17.2493 6.13392 17.1332 6.25ZM12.8652 8.75L11.2496 7.13359L3.74962 14.6336L5.36524 16.25L12.8652 8.75ZM16.2496 5.36641L14.6332 3.75L12.1332 6.25L13.7496 7.86641L16.2496 5.36641Z" fill="#FF4970"/>
</svg>
