<svg width="24" height="25" viewBox="0 0 24 25" fill="none" xmlns="http://www.w3.org/2000/svg">
<path d="M10 17.5C10 18.0523 10.4477 18.5 11 18.5H13C13.5523 18.5 14 18.0523 14 17.5C14 16.9477 13.5523 16.5 13 16.5H11C10.4477 16.5 10 16.9477 10 17.5ZM4 6.5C3.44772 6.5 3 6.94772 3 7.5C3 8.05228 3.44772 8.5 4 8.5H12H20C20.5523 8.5 21 8.05228 21 7.5C21 6.94772 20.5523 6.5 20 6.5H4ZM6 12.5C6 13.0523 6.44772 13.5 7 13.5H17C17.5523 13.5 18 13.0523 18 12.5C18 11.9477 17.5523 11.5 17 11.5H7C6.44772 11.5 6 11.9477 6 12.5Z" fill="black"/>
</svg>
