<svg width="46" height="46" viewBox="0 0 46 46" fill="none" xmlns="http://www.w3.org/2000/svg">
<rect x="0.100586" width="45.7212" height="45.7212" rx="22.8606" fill="#F5F5F5"/>
<path d="M22.9635 16.9977C19.7193 16.9977 17.101 19.616 17.101 22.8603C17.101 26.1046 19.7193 28.7229 22.9635 28.7229C26.2078 28.7229 28.8261 26.1046 28.8261 22.8603C28.8261 19.616 26.2078 16.9977 22.9635 16.9977ZM22.9635 26.6706C20.8655 26.6706 19.1533 24.9584 19.1533 22.8603C19.1533 20.7622 20.8655 19.0501 22.9635 19.0501C25.0616 19.0501 26.7738 20.7622 26.7738 22.8603C26.7738 24.9584 25.0616 26.6706 22.9635 26.6706ZM29.0662 15.3913C28.3087 15.3913 27.697 16.003 27.697 16.7605C27.697 17.518 28.3087 18.1297 29.0662 18.1297C29.8237 18.1297 30.4354 17.5208 30.4354 16.7605C30.4356 16.5806 30.4003 16.4025 30.3316 16.2363C30.2629 16.07 30.162 15.919 30.0349 15.7918C29.9077 15.6647 29.7567 15.5638 29.5904 15.4951C29.4242 15.4264 29.2461 15.3911 29.0662 15.3913ZM34.3914 22.8603C34.3914 21.2825 34.4057 19.7189 34.3171 18.144C34.2285 16.3146 33.8111 14.691 32.4734 13.3533C31.1328 12.0127 29.5121 11.5982 27.6827 11.5096C26.1049 11.421 24.5414 11.4353 22.9664 11.4353C21.3886 11.4353 19.825 11.421 18.25 11.5096C16.4207 11.5982 14.7971 12.0156 13.4594 13.3533C12.1188 14.6939 11.7043 16.3146 11.6157 18.144C11.5271 19.7218 11.5414 21.2853 11.5414 22.8603C11.5414 24.4353 11.5271 26.0017 11.6157 27.5767C11.7043 29.406 12.1216 31.0296 13.4594 32.3673C14.8 33.7079 16.4207 34.1224 18.25 34.211C19.8279 34.2996 21.3914 34.2853 22.9664 34.2853C24.5442 34.2853 26.1078 34.2996 27.6827 34.211C29.5121 34.1224 31.1357 33.7051 32.4734 32.3673C33.814 31.0267 34.2285 29.406 34.3171 27.5767C34.4086 26.0017 34.3914 24.4381 34.3914 22.8603ZM31.876 29.6004C31.6674 30.1206 31.4158 30.5094 31.0128 30.9096C30.6097 31.3126 30.2239 31.5641 29.7036 31.7728C28.2001 32.3702 24.63 32.2359 22.9635 32.2359C21.2971 32.2359 17.7241 32.3702 16.2206 31.7757C15.7003 31.567 15.3116 31.3154 14.9114 30.9124C14.5084 30.5094 14.2569 30.1235 14.0482 29.6033C13.4536 28.0969 13.588 24.5268 13.588 22.8603C13.588 21.1939 13.4536 17.6209 14.0482 16.1174C14.2569 15.5971 14.5084 15.2084 14.9114 14.8082C15.3145 14.408 15.7003 14.1536 16.2206 13.945C17.7241 13.3504 21.2971 13.4848 22.9635 13.4848C24.63 13.4848 28.203 13.3504 29.7065 13.945C30.2267 14.1536 30.6155 14.4052 31.0156 14.8082C31.4187 15.2112 31.6702 15.5971 31.8789 16.1174C32.4734 17.6209 32.3391 21.1939 32.3391 22.8603C32.3391 24.5268 32.4734 28.0969 31.876 29.6004Z" fill="black"/>
</svg>
