<svg width="46" height="46" viewBox="0 0 46 46" fill="none" xmlns="http://www.w3.org/2000/svg">
<rect x="0.150391" width="45.7212" height="45.7212" rx="22.8606" fill="#F5F5F5"/>
<path fill-rule="evenodd" clip-rule="evenodd" d="M16.1539 13.7175C16.1539 14.9801 15.1304 16.0037 13.8677 16.0037C12.6051 16.0037 11.5815 14.9801 11.5815 13.7175C11.5815 12.4549 12.6051 11.4313 13.8677 11.4313C15.1304 11.4313 16.1539 12.4549 16.1539 13.7175ZM27.5849 18.2879C29.4039 18.2879 31.1484 19.0105 32.4346 20.2968C33.7209 21.583 34.4435 23.3275 34.4435 25.1465V33.1481H29.8711V25.1465C29.8711 24.5401 29.6302 23.9586 29.2015 23.5299C28.7727 23.1012 28.1912 22.8603 27.5849 22.8603C26.9786 22.8603 26.3971 23.1012 25.9683 23.5299C25.5396 23.9586 25.2987 24.5401 25.2987 25.1465V33.1481H20.7264V25.1465C20.7264 23.3275 21.449 21.583 22.7352 20.2968C24.0214 19.0105 25.7659 18.2879 27.5849 18.2879ZM16.1539 33.1486V19.4315H11.5815V33.1486H16.1539Z" fill="black"/>
</svg>
