<svg width="25" height="25" viewBox="0 0 25 25" fill="none" xmlns="http://www.w3.org/2000/svg">
<path d="M20.2908 5.07776L19.5452 4.3321C19.3344 4.12136 18.9454 4.15379 18.7022 4.44554L16.1082 7.0231C14.9409 6.5206 13.6604 6.27744 12.3148 6.27744C8.31047 6.29358 4.84148 8.62798 3.1716 11.9839C3.07431 12.1947 3.07431 12.454 3.1716 12.6323C3.94968 14.221 5.11696 15.5341 6.57597 16.523L4.45231 18.679C4.20914 18.9222 4.17671 19.3113 4.33887 19.522L5.08453 20.2677C5.29526 20.4784 5.68432 20.446 5.92749 20.1542L20.1609 5.92086C20.4689 5.67783 20.5013 5.28879 20.2906 5.07804L20.2908 5.07776ZM13.174 9.97344C12.8984 9.90858 12.6066 9.82757 12.331 9.82757C10.953 9.82757 9.85074 10.93 9.85074 12.3078C9.85074 12.5834 9.9156 12.8752 9.99661 13.1508L8.91034 14.2208C8.58616 13.6534 8.40785 13.0211 8.40785 12.3079C8.40785 10.1518 10.1425 8.41715 12.2986 8.41715C13.0119 8.41715 13.6441 8.59546 14.2115 8.91965L13.174 9.97344Z" fill="#666666" fill-opacity="0.8"/>
<path d="M21.4584 11.9839C20.891 10.849 20.1452 9.82779 19.2213 9.00098L16.2059 11.9839V12.308C16.2059 14.4641 14.4713 16.1987 12.3152 16.1987H11.991L10.0781 18.1116C10.7915 18.2575 11.5371 18.3548 12.2667 18.3548C16.271 18.3548 19.7399 16.0204 21.4098 12.6483C21.5557 12.4213 21.5557 12.1944 21.4584 11.9837L21.4584 11.9839Z" fill="#666666" fill-opacity="0.8"/>
</svg>
