<svg width="53" height="53" viewBox="0 0 53 53" fill="none" xmlns="http://www.w3.org/2000/svg">
<circle cx="26.5" cy="26.5" r="26.5" fill="black"/>
<path d="M18.752 33.716C17.9 33.716 17.168 33.524 16.556 33.14C15.944 32.744 15.47 32.198 15.134 31.502C14.81 30.806 14.648 30.014 14.648 29.126C14.648 28.226 14.816 27.428 15.152 26.732C15.488 26.024 15.968 25.466 16.592 25.058C17.216 24.65 17.96 24.446 18.824 24.446C19.508 24.446 20.114 24.59 20.642 24.878C21.182 25.154 21.602 25.568 21.902 26.12V20.252H23.576V33.5H22.064L21.92 31.898C21.632 32.486 21.206 32.936 20.642 33.248C20.09 33.56 19.46 33.716 18.752 33.716ZM19.094 32.186C19.67 32.186 20.162 32.054 20.57 31.79C20.99 31.526 21.314 31.16 21.542 30.692C21.77 30.224 21.884 29.684 21.884 29.072C21.884 28.46 21.77 27.926 21.542 27.47C21.314 27.002 20.99 26.636 20.57 26.372C20.162 26.108 19.67 25.976 19.094 25.976C18.518 25.976 18.026 26.114 17.618 26.39C17.21 26.654 16.898 27.02 16.682 27.488C16.466 27.944 16.358 28.472 16.358 29.072C16.358 29.684 16.466 30.224 16.682 30.692C16.898 31.16 17.21 31.526 17.618 31.79C18.026 32.054 18.518 32.186 19.094 32.186ZM28.591 33.716C27.655 33.716 26.917 33.47 26.377 32.978C25.849 32.486 25.585 31.844 25.585 31.052C25.585 30.248 25.873 29.606 26.449 29.126C27.025 28.634 27.829 28.346 28.861 28.262L31.633 28.046V27.794C31.633 27.302 31.543 26.912 31.363 26.624C31.183 26.324 30.937 26.114 30.625 25.994C30.313 25.862 29.959 25.796 29.563 25.796C28.855 25.796 28.303 25.946 27.907 26.246C27.523 26.534 27.331 26.948 27.331 27.488H25.855C25.855 26.876 26.011 26.342 26.323 25.886C26.635 25.43 27.073 25.076 27.637 24.824C28.213 24.572 28.879 24.446 29.635 24.446C30.367 24.446 31.003 24.578 31.543 24.842C32.095 25.094 32.521 25.484 32.821 26.012C33.133 26.528 33.289 27.182 33.289 27.974V33.5H31.849L31.669 32.078C31.441 32.582 31.045 32.984 30.481 33.284C29.929 33.572 29.299 33.716 28.591 33.716ZM29.077 32.402C29.881 32.402 30.511 32.162 30.967 31.682C31.423 31.19 31.651 30.53 31.651 29.702V29.234L29.401 29.414C28.657 29.486 28.117 29.66 27.781 29.936C27.457 30.212 27.295 30.566 27.295 30.998C27.295 31.466 27.451 31.82 27.763 32.06C28.087 32.288 28.525 32.402 29.077 32.402ZM36.8922 33.716C36.5442 33.716 36.2382 33.596 35.9742 33.356C35.7222 33.104 35.5962 32.804 35.5962 32.456C35.5962 32.096 35.7222 31.796 35.9742 31.556C36.2382 31.304 36.5442 31.178 36.8922 31.178C37.2402 31.178 37.5402 31.304 37.7922 31.556C38.0442 31.796 38.1702 32.096 38.1702 32.456C38.1702 32.804 38.0442 33.104 37.7922 33.356C37.5402 33.596 37.2402 33.716 36.8922 33.716Z" fill="white"/>
</svg>
