<svg width="18" height="19" viewBox="0 0 18 19" fill="none" xmlns="http://www.w3.org/2000/svg">
<path d="M13.5233 12.9626L16.205 15.6443C16.4978 15.9372 16.4978 16.4121 16.205 16.705C15.9121 16.9978 15.4372 16.9978 15.1443 16.705L12.4626 14.0233C11.3077 14.9473 9.843 15.5 8.25 15.5C4.524 15.5 1.5 12.476 1.5 8.75C1.5 5.024 4.524 2 8.25 2C11.976 2 15 5.024 15 8.75C15 10.343 14.4473 11.8077 13.5233 12.9626ZM12.0185 12.4061C12.9356 11.4609 13.5 10.1717 13.5 8.75C13.5 5.84938 11.1506 3.5 8.25 3.5C5.34938 3.5 3 5.84938 3 8.75C3 11.6506 5.34938 14 8.25 14C9.6717 14 10.9609 13.4356 11.9061 12.5185L12.0185 12.4061Z" fill="#AEAEAE"/>
</svg>
