<svg width="61" height="61" viewBox="0 0 61 61" fill="none" xmlns="http://www.w3.org/2000/svg">
<circle cx="30.1385" cy="30.5088" r="30.0867" fill="#FFCD56" fill-opacity="0.18"/>
<path d="M33.3476 28.4471C32.9126 28.0352 32.6328 27.486 32.5552 26.892L32.1511 23.8006L29.4126 25.2908C28.8864 25.5771 28.2777 25.6735 27.6888 25.5638L24.6238 24.9928L25.1948 28.0578C25.3045 28.6467 25.2081 29.2554 24.9218 29.7816L23.4316 32.5201L26.523 32.9242C27.117 33.0018 27.6661 33.2816 28.0781 33.7165L30.2221 35.98L31.5616 33.1649C31.8191 32.6239 32.2548 32.188 32.7958 31.9307L35.611 30.591L33.3476 28.4471ZM33.3729 34.0266L31.1538 38.6902C31.011 38.9903 30.6519 39.1178 30.3519 38.975C30.285 38.9432 30.2245 38.8993 30.1735 38.8454L26.6219 35.0959C26.5268 34.9955 26.4001 34.9309 26.263 34.9131L21.142 34.2437C20.8124 34.2005 20.5802 33.8986 20.6233 33.569C20.6329 33.4955 20.656 33.4245 20.6914 33.3594L23.1599 28.8229C23.226 28.7015 23.2483 28.561 23.2229 28.4251L22.2771 23.3479C22.2162 23.0211 22.4317 22.707 22.7584 22.6461C22.8313 22.6325 22.906 22.6325 22.9788 22.6461L28.0561 23.592C28.192 23.6173 28.3325 23.595 28.4539 23.5289L32.9904 21.0604C33.2823 20.9016 33.6478 21.0094 33.8065 21.3014C33.842 21.3664 33.8651 21.4375 33.8746 21.511L34.544 26.632C34.562 26.7691 34.6266 26.8958 34.7269 26.9909L38.4765 30.5425C38.7178 30.7711 38.7281 31.152 38.4995 31.3932C38.4486 31.447 38.3881 31.4909 38.3212 31.5227L33.6577 33.7418C33.5328 33.8013 33.4322 33.9018 33.3729 34.0266ZM34.172 35.9593L35.5902 34.541L39.8452 38.7959L38.4269 40.2142L34.172 35.9593Z" fill="black"/>
</svg>
