<svg width="46" height="46" viewBox="0 0 46 46" fill="none" xmlns="http://www.w3.org/2000/svg">
<rect x="0.050293" width="45.7212" height="45.7212" rx="22.8606" fill="#F5F5F5"/>
<path d="M35.5075 15.0577C34.5809 15.4574 33.5725 15.7451 32.5338 15.8571C33.6122 15.2164 34.4197 14.2043 34.805 13.0106C33.793 13.6126 32.6844 14.0347 31.5284 14.2582C31.0452 13.7417 30.4609 13.3302 29.8117 13.0494C29.1625 12.7685 28.4625 12.6244 27.7552 12.626C24.8935 12.626 22.5921 14.9456 22.5921 17.7922C22.5921 18.1919 22.6405 18.5916 22.7193 18.9762C18.4343 18.7521 14.6127 16.705 12.072 13.5708C11.6091 14.3615 11.3665 15.2618 11.3695 16.1781C11.3695 17.9708 12.281 19.5516 13.6709 20.4812C12.8518 20.449 12.0518 20.2238 11.3361 19.8241V19.8877C11.3361 22.3981 13.1107 24.4785 15.4757 24.957C15.0317 25.0723 14.5749 25.1313 14.1161 25.1326C13.7799 25.1326 13.462 25.0993 13.141 25.0539C13.7951 27.1009 15.6998 28.5878 17.968 28.6363C16.1934 30.0262 13.9707 30.8438 11.5572 30.8438C11.1242 30.8438 10.7244 30.8287 10.3096 30.7802C12.5989 32.2489 15.3152 33.0968 18.2405 33.0968C27.7371 33.0968 32.9335 25.2295 32.9335 18.4008C32.9335 18.1767 32.9335 17.9527 32.9184 17.7286C33.9237 16.9927 34.805 16.0812 35.5075 15.0577Z" fill="black"/>
</svg>
